<svg width="16" height="10" viewBox="0 0 16 10" fill="none" xmlns="http://www.w3.org/2000/svg">
<path d="M13.8799 0H1.12366C0.503061 0 0 0.50306 0 1.12366V8.70634C0 9.32691 0.503061 9.83 1.12366 9.83H13.8799C14.5005 9.83 15.0036 9.32694 15.0036 8.70634V1.12366C15.0036 0.50306 14.5005 0 13.8799 0Z" fill="#82C3D2"/>
<path d="M7.93394 5.63694C8.67203 5.63694 9.27038 5.0386 9.27038 4.30051C9.27038 3.56242 8.67203 2.96408 7.93394 2.96408C7.19585 2.96408 6.5975 3.56242 6.5975 4.30051C6.5975 5.0386 7.19585 5.63694 7.93394 5.63694Z" fill="#FFE15A"/>
<path d="M8.03398 2.59631H7.83348L7.93373 2.29559L8.03398 2.59631Z" fill="#FFE15A"/>
<path d="M7.83351 6.00489H8.03401L7.93376 6.3056L7.83351 6.00489Z" fill="#FFE15A"/>
<path d="M9.63795 4.40091V4.20041L9.93866 4.30066L9.63795 4.40091Z" fill="#FFE15A"/>
<path d="M6.22984 4.20047V4.40096L5.92912 4.30072L6.22984 4.20047Z" fill="#FFE15A"/>
<path d="M9.20992 3.16667L9.06816 3.0249L9.35166 2.88312L9.20992 3.16667Z" fill="#FFE15A"/>
<path d="M6.65803 5.43463L6.7998 5.57639L6.51629 5.71813L6.65803 5.43463Z" fill="#FFE15A"/>
<path d="M9.06822 5.57646L9.20999 5.43469L9.35175 5.7182L9.06822 5.57646Z" fill="#FFE15A"/>
<path d="M6.79972 3.02492L6.65795 3.16669L6.51618 2.88318L6.79972 3.02492Z" fill="#FFE15A"/>
<path d="M7.37451 2.68808L7.18928 2.76477L7.1668 2.44858L7.37451 2.68808Z" fill="#FFE15A"/>
<path d="M8.49363 5.91355L8.67887 5.83686L8.70134 6.15305L8.49363 5.91355Z" fill="#FFE15A"/>
<path d="M9.54664 3.74097L9.46995 3.55575L9.78611 3.53327L9.54664 3.74097Z" fill="#FFE15A"/>
<path d="M6.32118 4.85996L6.39787 5.0452L6.08168 5.06768L6.32118 4.85996Z" fill="#FFE15A"/>
<path d="M8.6787 2.76437L8.49348 2.68768L8.70114 2.44821L8.6787 2.76437Z" fill="#FFE15A"/>
<path d="M7.18931 5.83677L7.37454 5.91345L7.16686 6.15291L7.18931 5.83677Z" fill="#FFE15A"/>
<path d="M9.46974 5.04518L9.54643 4.85995L9.78589 5.06762L9.46974 5.04518Z" fill="#FFE15A"/>
<path d="M6.3979 3.55578L6.32121 3.74101L6.08174 3.53333L6.3979 3.55578Z" fill="#FFE15A"/>
<path d="M7.69991 2.60954L7.50327 2.64863L7.54292 2.33414L7.69991 2.60954Z" fill="#FFE15A"/>
<path d="M8.16816 5.9914L8.3648 5.95231L8.32515 6.2668L8.16816 5.9914Z" fill="#FFE15A"/>
<path d="M9.62497 4.0663L9.58588 3.86968L9.90037 3.90933L9.62497 4.0663Z" fill="#FFE15A"/>
<path d="M6.24307 4.5346L6.28216 4.73122L5.96767 4.69158L6.24307 4.5346Z" fill="#FFE15A"/>
<path d="M8.96388 2.93939L8.79718 2.82798L9.0476 2.63363L8.96388 2.93939Z" fill="#FFE15A"/>
<path d="M6.90405 5.66173L7.07073 5.77315L6.82033 5.96749L6.90405 5.66173Z" fill="#FFE15A"/>
<path d="M9.29509 5.33061L9.4065 5.16392L9.60084 5.41433L9.29509 5.33061Z" fill="#FFE15A"/>
<path d="M6.57291 3.27051C6.68044 3.34231 6.4615 3.43719 6.4615 3.43719L6.26716 3.18678L6.57291 3.27051Z" fill="#FFE15A"/>
<path d="M7.07074 2.82799L6.90405 2.93941L6.82033 2.63367L7.07074 2.82799Z" fill="#FFE15A"/>
<path d="M8.79739 5.77308L8.96406 5.66167L9.04778 5.96739L8.79739 5.77308Z" fill="#FFE15A"/>
<path d="M9.40665 3.43719L9.29524 3.27051L9.60096 3.18678L9.40665 3.43719Z" fill="#FFE15A"/>
<path d="M6.46158 5.16386L6.573 5.33054L6.26726 5.41426L6.46158 5.16386Z" fill="#FFE15A"/>
<path d="M8.36478 2.6487L8.16816 2.60961L8.32513 2.33424L8.36478 2.6487Z" fill="#FFE15A"/>
<path d="M7.50343 5.95231L7.70005 5.9914L7.54308 6.26677L7.50343 5.95231Z" fill="#FFE15A"/>
<path d="M9.58584 4.73127L9.62493 4.53463L9.90033 4.69162L9.58584 4.73127Z" fill="#FFE15A"/>
<path d="M6.2822 3.86984L6.24311 4.06648L5.96771 3.90949L6.2822 3.86984Z" fill="#FFE15A"/>
<path d="M10.9775 4.69362L10.6743 5.22344L10.8973 4.44574L10.7493 4.40548L10.4899 5.05201L10.5234 4.50661L10.3703 4.49998C10.2721 5.84996 8.96155 6.5325 8.83504 6.58806C8.57294 6.61418 8.32031 6.739 8.06323 6.75436C6.74253 6.84991 5.77313 5.76315 5.53833 4.53494L5.38776 4.56337L5.58293 5.18496L5.2168 4.33913L5.06829 4.37676L5.33088 5.16653L4.98498 4.64466L4.84025 4.69474L5.28133 5.50927L4.98498 5.18496L4.86613 5.28163L5.26891 5.74475L5.06097 5.64128L4.98498 5.77315L5.56573 6.14844L5.42971 6.12238V6.29715L5.62061 6.35738L5.61124 6.49464C5.61124 6.49464 5.72763 6.56142 5.86167 6.61649C5.67924 6.8991 7.00634 7.09797 7.15505 7.08594L7.1428 6.93323L6.26726 6.71423L5.38999 5.57639L5.82864 5.67955C6.25585 6.39579 6.9562 6.88693 7.80554 6.91178C7.58494 7.04576 7.20679 7.12106 7.07871 7.36508C6.99228 7.52906 7.25256 7.62819 7.24659 7.47884C7.3119 7.40683 7.72135 7.49048 7.72135 7.49048C7.191 8.10872 9.76112 7.90558 9.83486 7.22715L9.76333 7.14243L8.87261 7.08887L8.45702 7.36508L7.68781 7.22715C7.68781 7.22715 8.43034 6.78056 8.86106 6.73936C9.63981 6.43654 10.0775 5.85119 10.2899 5.41555L10.3962 5.56957L9.82208 6.54381C9.75192 6.63422 9.74883 6.6481 9.83486 6.68973L9.02024 6.89933L9.03533 7.05203L10.1968 6.75436L10.1111 6.6285L10.4936 6.44887L10.3716 6.32998L10.858 5.96949L10.7612 5.85063L10.584 5.97306L11.06 5.40796L10.9407 5.3117L10.7347 5.54719L11.119 4.75211L10.9775 4.69362Z" fill="#FFE15A"/>
<path fill-rule="evenodd" clip-rule="evenodd" d="M0.821128 2.84353L1.18482 2.02537C1.33471 1.68858 0.887179 1.5703 0.887179 1.8462L1.08665 1.79785L0.792352 2.25118L0.792411 0.997093L1.08668 1.45042L0.887209 1.40207C0.887209 1.67786 1.33459 1.55982 1.18485 1.22294L0.993113 0.753754H1.55862L1.36612 1.22455C1.2171 1.55986 1.66452 1.67788 1.66452 1.40204L1.46505 1.4504L1.75932 0.997064L1.75941 2.25115L1.46511 1.79782L1.66458 1.8462C1.66458 1.57049 1.21719 1.68848 1.36694 2.02537L1.73058 2.8435C1.79511 2.98878 1.80191 3.18315 1.66476 3.28989C1.80185 3.39665 1.79517 3.591 1.73058 3.73628L1.36694 4.55441C1.22024 4.88403 1.66458 5.01589 1.66458 4.73358L1.46511 4.78193L1.75938 4.3286L1.75938 5.58272L1.46511 5.12939L1.66458 5.17774C1.66458 4.89543 1.22024 5.02729 1.36694 5.3569L1.73058 6.17504C1.79517 6.32031 1.80185 6.51467 1.66476 6.62142C1.80191 6.72817 1.79511 6.92253 1.73058 7.06781L1.36694 7.88595C1.21719 8.22284 1.66458 8.34083 1.66458 8.06511L1.46511 8.11349L1.75941 7.66016L1.75932 8.91425L1.46505 8.46092L1.66452 8.50927C1.66452 8.23344 1.2171 8.35145 1.36612 8.68676L1.55862 9.15756H0.993113L1.18485 8.68838C1.33459 8.3515 0.887209 8.23346 0.887209 8.50924L1.08668 8.46089L0.792411 8.91422L0.792352 7.66013L1.08665 8.11346L0.887179 8.06511C0.887179 8.34101 1.33471 8.22274 1.18482 7.88595L0.821128 7.06778C0.756557 6.92249 0.74984 6.72816 0.886945 6.62139C0.749844 6.51458 0.756577 6.32033 0.821128 6.17501L1.18476 5.35687C1.33129 5.02723 0.887121 4.89532 0.887121 5.17771L1.08659 5.12936C1.08659 5.12936 0.950851 5.74122 0.792323 5.58269V4.32863L1.08659 4.78196L0.887121 4.73361C0.887121 5.01599 1.33129 4.88409 1.18476 4.55444L0.821128 3.73631C0.756577 3.59099 0.749844 3.39673 0.886945 3.28992C0.74984 3.18315 0.756557 2.98882 0.821128 2.84353ZM0.922608 2.8886L1.27578 2.094L1.62898 2.88863C1.77872 3.22549 1.33134 3.34366 1.33134 3.06777H1.53084C1.62671 2.91753 1.33134 2.87817 1.33134 2.87817L1.27578 2.51252L1.22025 2.87814C1.22025 2.87814 0.924945 2.91754 1.02081 3.06777L1.22025 3.06774C1.22025 3.34367 0.772712 3.2254 0.922608 2.8886ZM1.2759 1.15589L1.18075 0.835775H1.37099L1.2759 1.15589ZM1.62898 6.22011L1.27581 5.4255L0.922637 6.22011C0.76757 6.56896 1.22028 6.67738 1.22028 6.39924L1.02078 6.39927C0.924946 6.24903 1.22028 6.20967 1.22028 6.20967L1.27584 5.84408L1.33137 6.2097C1.33137 6.2097 1.62667 6.24905 1.53081 6.39927H1.33137C1.33137 6.67742 1.78434 6.56893 1.62898 6.22011ZM0.922608 7.02271L1.27578 7.81732L1.62898 7.02268C1.77872 6.68582 1.33134 6.56765 1.33134 6.84355H1.53081C1.62668 6.99378 1.33134 7.03314 1.33134 7.03314L1.27578 7.3988L1.22025 7.03317C1.22025 7.03317 0.924916 6.9938 1.02078 6.84358H1.22025C1.22025 6.56765 0.772712 6.68592 0.922608 7.02271ZM1.2759 8.75542L1.16397 9.07554H1.37099L1.2759 8.75542ZM1.27581 4.48581L1.62898 3.69121C1.78434 3.34238 1.33137 3.23389 1.33137 3.51204L1.53084 3.51207C1.6267 3.6623 1.33137 3.70161 1.33137 3.70161L1.27584 4.06724L1.22028 3.70164C1.22028 3.70164 0.924975 3.66228 1.02081 3.51204L1.22028 3.51207C1.22028 3.23394 0.76757 3.34236 0.922637 3.69121L1.27581 4.48581Z" fill="#FFE15A"/>
</svg>
